<?xml version="1.0" encoding="UTF-8"?>
<svg xmlns="http://www.w3.org/2000/svg" width="256" height="256" viewBox="0 0 900 900">
  <path fill="currentColor" fill-rule="evenodd" d="
    M 456 115 L 450 115 L 449 114 L 413 114 L 412 115 L 406 115 L 405 116 L 393 117 L 392 118 L 388 118 L 387 119 L 384 119 L 383 120 L 379 120 L 378 121 L 375 121 L 374 122 L 368 123 L 364 125 L 361 125 L 360 126 L 358 126 L 357 127 L 355 127 L 354 128 L 352 128 L 351 129 L 343 131 L 340 133 L 335 134 L 332 136 L 330 136 L 322 140 L 320 140 L 313 144 L 311 144 L 289 155 L 287 157 L 280 160 L 278 162 L 275 163 L 273 165 L 265 169 L 263 171 L 262 171 L 260 173 L 259 173 L 257 175 L 250 179 L 247 182 L 243 184 L 236 190 L 235 190 L 231 194 L 230 194 L 221 202 L 220 202 L 214 208 L 213 208 L 204 217 L 203 217 L 182 238 L 182 239 L 173 248 L 173 249 L 162 261 L 162 262 L 155 270 L 155 271 L 149 278 L 147 282 L 144 285 L 144 286 L 132 303 L 131 306 L 127 311 L 122 321 L 120 323 L 101 361 L 101 363 L 98 368 L 98 370 L 96 373 L 96 375 L 92 383 L 91 388 L 89 391 L 89 393 L 88 394 L 88 396 L 87 397 L 87 399 L 86 400 L 86 402 L 85 403 L 85 405 L 83 409 L 83 412 L 81 416 L 81 419 L 79 423 L 79 426 L 78 427 L 78 430 L 77 431 L 77 434 L 76 435 L 76 438 L 75 439 L 75 442 L 74 443 L 74 447 L 73 448 L 73 452 L 72 453 L 72 457 L 71 458 L 71 463 L 70 464 L 70 470 L 69 471 L 69 477 L 68 478 L 68 486 L 67 487 L 67 500 L 66 501 L 66 544 L 67 545 L 67 558 L 68 559 L 69 575 L 70 576 L 71 589 L 72 590 L 72 594 L 73 595 L 73 599 L 74 600 L 75 609 L 76 610 L 76 613 L 77 614 L 77 617 L 78 618 L 78 621 L 79 622 L 79 625 L 80 626 L 81 633 L 82 634 L 82 636 L 83 637 L 83 639 L 84 640 L 84 642 L 85 643 L 85 645 L 86 646 L 86 648 L 87 649 L 87 651 L 88 652 L 90 660 L 92 663 L 93 668 L 96 673 L 96 675 L 98 678 L 98 680 L 112 708 L 114 710 L 116 715 L 123 725 L 124 728 L 126 730 L 126 731 L 128 733 L 132 740 L 138 747 L 140 751 L 144 755 L 144 756 L 148 760 L 148 761 L 153 766 L 153 767 L 160 774 L 160 775 L 188 803 L 189 803 L 195 809 L 196 809 L 206 818 L 207 818 L 214 824 L 218 826 L 221 829 L 222 829 L 233 837 L 241 841 L 243 843 L 248 845 L 250 847 L 282 863 L 284 863 L 294 868 L 296 868 L 297 869 L 299 869 L 300 870 L 302 870 L 303 871 L 305 871 L 306 872 L 308 872 L 309 873 L 311 873 L 312 874 L 314 874 L 318 876 L 321 876 L 325 878 L 328 878 L 332 880 L 340 881 L 341 882 L 345 882 L 328 864 L 328 863 L 321 855 L 321 854 L 315 846 L 314 843 L 312 841 L 303 823 L 303 821 L 301 818 L 301 816 L 299 813 L 299 811 L 298 810 L 298 808 L 297 807 L 297 805 L 295 801 L 295 798 L 294 797 L 294 794 L 293 793 L 293 790 L 292 789 L 292 786 L 291 785 L 290 774 L 289 773 L 289 766 L 288 765 L 288 753 L 287 752 L 287 735 L 288 734 L 288 721 L 289 720 L 289 712 L 290 711 L 291 700 L 292 699 L 292 695 L 293 694 L 293 691 L 294 690 L 294 687 L 295 686 L 296 679 L 297 678 L 297 676 L 298 675 L 298 673 L 299 672 L 299 670 L 300 669 L 302 661 L 307 651 L 307 649 L 318 627 L 320 625 L 322 620 L 326 615 L 329 609 L 332 606 L 334 602 L 341 594 L 341 593 L 347 587 L 347 586 L 369 564 L 370 564 L 376 558 L 377 558 L 387 549 L 388 549 L 391 546 L 392 546 L 411 531 L 411 526 L 406 516 L 404 514 L 403 511 L 399 506 L 398 503 L 394 498 L 393 495 L 387 487 L 386 484 L 384 482 L 383 479 L 380 475 L 386 468 L 386 467 L 390 463 L 390 462 L 393 459 L 393 458 L 396 455 L 396 454 L 400 450 L 400 449 L 403 446 L 403 445 L 406 442 L 406 441 L 409 438 L 409 437 L 412 434 L 412 433 L 416 429 L 416 428 L 419 425 L 419 424 L 422 421 L 422 420 L 425 417 L 425 416 L 428 413 L 428 412 L 431 409 L 431 408 L 435 404 L 435 403 L 450 384 L 450 383 L 452 381 L 452 380 L 454 378 L 458 371 L 458 369 L 455 363 L 453 361 L 449 353 L 445 348 L 441 340 L 437 335 L 436 332 L 429 322 L 428 319 L 421 309 L 420 306 L 418 304 L 417 301 L 415 299 L 414 296 L 412 294 L 411 291 L 409 289 L 407 285 L 407 283 L 409 281 L 411 277 L 414 274 L 418 267 L 421 264 L 421 263 L 423 261 L 423 260 L 425 258 L 425 257 L 427 255 L 431 248 L 434 245 L 434 244 L 436 242 L 436 241 L 438 239 L 438 238 L 440 236 L 440 235 L 442 233 L 442 232 L 458 209 L 459 206 L 471 189 L 472 186 L 474 184 L 477 178 L 479 176 L 480 173 L 482 171 L 488 159 L 488 157 L 490 153 L 490 140 L 489 139 L 489 136 L 486 130 L 480 124 L 470 119 L 468 119 L 464 117 L 461 117 L 460 116 L 457 116 Z
    M 647 316 L 645 316 L 641 314 L 637 314 L 636 313 L 627 313 L 619 317 L 613 323 L 609 331 L 609 333 L 608 334 L 608 336 L 607 337 L 607 339 L 605 343 L 605 346 L 603 350 L 603 353 L 601 357 L 601 360 L 599 364 L 599 367 L 597 371 L 597 374 L 596 375 L 596 377 L 595 378 L 595 380 L 594 381 L 594 383 L 593 384 L 593 386 L 592 387 L 592 389 L 591 390 L 591 392 L 590 393 L 588 401 L 586 404 L 586 406 L 584 409 L 584 411 L 575 429 L 573 431 L 571 435 L 568 438 L 568 439 L 557 450 L 556 450 L 551 454 L 548 455 L 546 457 L 526 467 L 524 467 L 517 471 L 515 471 L 503 477 L 501 477 L 491 482 L 489 482 L 475 489 L 473 491 L 471 495 L 471 503 L 473 506 L 473 508 L 474 509 L 474 511 L 475 512 L 475 514 L 476 515 L 476 517 L 478 521 L 478 524 L 479 525 L 479 527 L 480 528 L 480 530 L 482 534 L 482 537 L 484 541 L 484 544 L 486 548 L 486 551 L 484 553 L 482 553 L 481 554 L 479 554 L 478 555 L 470 557 L 460 562 L 458 562 L 438 572 L 436 574 L 431 576 L 429 578 L 426 579 L 424 581 L 423 581 L 421 583 L 420 583 L 418 585 L 411 589 L 403 596 L 402 596 L 396 602 L 395 602 L 382 615 L 382 616 L 375 623 L 375 624 L 371 628 L 371 629 L 365 636 L 365 637 L 355 651 L 354 654 L 352 656 L 350 661 L 348 663 L 341 677 L 341 679 L 338 684 L 338 686 L 336 689 L 336 691 L 334 694 L 334 696 L 333 697 L 333 699 L 331 703 L 331 706 L 330 707 L 330 710 L 329 711 L 329 714 L 328 715 L 328 719 L 327 720 L 327 724 L 326 725 L 326 730 L 325 731 L 325 738 L 324 739 L 324 752 L 323 753 L 323 767 L 324 768 L 324 782 L 325 783 L 325 790 L 326 791 L 326 796 L 327 797 L 328 806 L 329 807 L 329 810 L 330 811 L 330 814 L 331 815 L 331 818 L 333 822 L 333 825 L 334 826 L 335 831 L 337 834 L 337 836 L 341 844 L 341 846 L 349 862 L 353 867 L 354 870 L 361 878 L 361 879 L 372 889 L 380 893 L 384 893 L 385 894 L 416 894 L 417 893 L 428 893 L 429 892 L 435 892 L 436 891 L 446 890 L 447 889 L 455 888 L 456 887 L 463 886 L 467 884 L 470 884 L 471 883 L 473 883 L 474 882 L 476 882 L 477 881 L 479 881 L 480 880 L 488 878 L 491 876 L 493 876 L 496 874 L 498 874 L 501 872 L 503 872 L 510 868 L 512 868 L 524 862 L 526 860 L 533 857 L 535 855 L 538 854 L 540 852 L 543 851 L 545 849 L 548 848 L 550 846 L 557 842 L 560 839 L 561 839 L 564 836 L 565 836 L 568 833 L 569 833 L 573 829 L 574 829 L 586 818 L 587 818 L 615 790 L 615 789 L 626 777 L 626 776 L 630 772 L 630 771 L 639 760 L 639 759 L 653 739 L 654 736 L 659 729 L 662 722 L 664 720 L 677 694 L 677 692 L 683 680 L 683 678 L 685 675 L 686 670 L 688 667 L 690 659 L 693 653 L 693 650 L 694 649 L 694 647 L 695 646 L 695 644 L 696 643 L 696 641 L 698 637 L 699 630 L 701 626 L 701 623 L 702 622 L 702 619 L 703 618 L 703 615 L 704 614 L 704 610 L 705 609 L 705 606 L 706 605 L 707 596 L 708 595 L 708 590 L 709 589 L 709 584 L 710 583 L 710 577 L 711 576 L 711 569 L 712 568 L 712 560 L 713 559 L 713 548 L 714 547 L 714 492 L 713 491 L 713 479 L 712 478 L 711 462 L 710 461 L 710 455 L 709 454 L 709 449 L 708 448 L 708 443 L 707 442 L 706 433 L 705 432 L 705 429 L 704 428 L 704 425 L 703 424 L 703 421 L 702 420 L 701 413 L 699 409 L 699 406 L 698 405 L 698 403 L 696 399 L 696 396 L 695 395 L 693 387 L 691 384 L 689 376 L 687 373 L 687 371 L 679 355 L 678 351 L 676 349 L 673 342 L 671 340 L 669 336 L 660 325 L 659 325 L 655 321 L 654 321 Z
    M 650 5 L 648 5 L 647 4 L 627 4 L 626 5 L 611 5 L 610 6 L 594 6 L 593 7 L 577 7 L 576 8 L 561 8 L 560 9 L 553 9 L 552 10 L 549 10 L 542 14 L 542 15 L 540 17 L 536 24 L 536 108 L 537 109 L 537 225 L 538 226 L 538 235 L 539 236 L 539 238 L 545 243 L 547 243 L 548 244 L 557 244 L 558 243 L 562 242 L 569 235 L 569 234 L 581 221 L 581 220 L 586 215 L 586 214 L 591 209 L 591 208 L 596 203 L 596 202 L 601 197 L 601 196 L 606 191 L 606 190 L 611 185 L 611 184 L 616 179 L 616 178 L 636 155 L 636 154 L 645 144 L 645 143 L 651 137 L 651 136 L 656 131 L 656 130 L 676 107 L 676 106 L 685 95 L 688 89 L 688 83 L 687 82 L 687 80 L 685 77 L 684 72 L 682 69 L 682 67 L 680 64 L 680 62 L 678 59 L 678 57 L 676 54 L 676 52 L 674 49 L 674 47 L 672 44 L 672 42 L 670 39 L 670 37 L 668 34 L 668 32 L 666 29 L 666 27 L 663 22 L 663 20 L 659 12 L 655 8 L 654 8 Z
    M 839 236 L 830 228 L 829 228 L 825 224 L 824 224 L 820 220 L 819 220 L 815 216 L 814 216 L 811 213 L 810 213 L 807 210 L 806 210 L 802 206 L 798 204 L 795 201 L 794 201 L 789 197 L 785 195 L 777 195 L 775 197 L 774 197 L 765 213 L 765 215 L 758 228 L 758 230 L 751 243 L 751 245 L 739 269 L 739 271 L 738 272 L 738 277 L 741 281 L 741 282 L 746 286 L 755 286 L 756 285 L 764 283 L 767 281 L 769 281 L 772 279 L 774 279 L 781 275 L 783 275 L 790 271 L 792 271 L 801 266 L 803 266 L 810 262 L 812 262 L 817 259 L 819 259 L 824 256 L 826 256 L 832 253 L 837 249 L 839 245 Z
  "/>
</svg>
