<?xml version="1.0" encoding="UTF-8"?>
<svg height="16px" viewBox="0 0 16 16" width="16px" xmlns="http://www.w3.org/2000/svg">
  <path d="M8 1a7 7 0 1 0 0 14A7 7 0 0 0 8 1zm0 1c.45 0 .97.33 1.44.9.38.46.71 1.07.96 1.77H5.6c.25-.7.58-1.31.96-1.77C7.03 2.33 7.55 2 8 2zM6.1 2.44C5.37 3.28 4.8 4.37 4.47 5.67H2.8A6.01 6.01 0 0 1 6.1 2.44zm3.8 0a6.01 6.01 0 0 1 3.3 3.23H11.53C11.2 4.37 10.63 3.28 9.9 2.44zM2.42 6.67h1.88C4.2 7.1 4.17 7.54 4.17 8c0 .46.03.9.13 1.33H2.42a5.98 5.98 0 0 1 0-2.66zm2.9 0h5.36c.1.43.15.87.15 1.33 0 .46-.05.9-.15 1.33H5.32A9.5 9.5 0 0 1 5.17 8c0-.46.05-.9.15-1.33zm6.38 0h1.88a5.98 5.98 0 0 1 0 2.66h-1.88c.1-.43.13-.87.13-1.33 0-.46-.03-.9-.13-1.33zM2.8 10.33h1.67c.33 1.3.9 2.39 1.63 3.23A6.01 6.01 0 0 1 2.8 10.33zm2.64 0h5.12c-.25.7-.58 1.31-.96 1.77-.47.57-.99.9-1.44.9-.45 0-.97-.33-1.44-.9-.38-.46-.71-1.07-.96-1.77zm6.09 0h1.67a6.01 6.01 0 0 1-3.3 3.23c.73-.84 1.3-1.93 1.63-3.23z" fill="#2e3436"/>
</svg>
